<?xml version="1.0" standalone="no"?>
<!DOCTYPE svg PUBLIC "-//W3C//DTD SVG 20010904//EN"
 "http://www.w3.org/TR/2001/REC-SVG-20010904/DTD/svg10.dtd">
<svg version="1.0" xmlns="http://www.w3.org/2000/svg"
 width="720.000000pt" height="720.000000pt" viewBox="0 0 720.000000 720.000000"
 preserveAspectRatio="xMidYMid meet">
<metadata>
Created by potrace 1.11, written by Peter Selinger 2001-2013
</metadata>
<g transform="translate(0.000000,720.000000) scale(0.100000,-0.100000)"
fill="#000000" stroke="none">
<path d="M6335 6030 c-22 -5 -75 -20 -117 -34 -135 -46 -221 -58 -293 -42 -11
2 -20 5 -20 6 0 1 -16 3 -34 6 -19 2 -38 9 -42 15 -3 6 -10 10 -15 9 -8 -1
-26 4 -59 16 -85 30 -214 25 -364 -15 -166 -44 -260 -45 -391 -6 -109 33 -252
43 -336 25 -22 -5 -52 -11 -69 -14 -16 -3 -43 -8 -60 -11 -124 -26 -240 -26
-365 0 -41 9 -88 18 -105 20 -37 5 -210 6 -245 1 -14 -3 -47 -7 -75 -11 -27
-4 -77 -10 -110 -15 -60 -9 -270 -6 -335 4 -133 21 -279 24 -460 10 -111 -8
-1668 -6 -1955 2 -163 5 -143 5 -222 3 l-63 -2 0 -2153 0 -2154 29 0 c23 0 30
-6 35 -25 4 -14 11 -23 16 -20 9 6 14 -8 11 -28 -1 -5 3 -6 9 -2 5 3 10 0 10
-7 0 -8 3 -9 8 -3 8 12 27 13 37 3 9 -9 35 2 35 14 0 7 -5 6 -13 -1 -8 -6 -17
-7 -21 -3 -4 4 -17 7 -28 7 -12 0 -23 7 -25 15 -4 12 -3 12 5 1 7 -9 12 -10
16 -2 4 6 13 8 19 4 19 -13 87 -12 80 1 -4 6 1 5 10 -3 14 -11 23 -12 43 -2
15 6 23 7 19 1 -4 -6 3 -8 17 -6 13 2 22 10 20 17 -1 9 3 7 11 -3 8 -10 26
-18 41 -18 14 0 26 -5 26 -12 0 -6 3 -8 7 -4 5 4 -1 14 -12 22 -19 14 -19 15
7 10 15 -2 33 -8 40 -12 8 -5 9 -1 5 12 -7 18 -6 18 7 2 14 -19 61 -24 70 -9
7 10 31 9 42 -2 4 -3 -3 -4 -15 -2 -12 2 -19 0 -16 -6 4 -5 3 -9 -2 -8 -19 3
-33 -2 -33 -12 0 -8 5 -8 15 1 8 7 15 9 15 5 0 -4 6 -2 13 4 8 6 17 8 20 4 4
-3 10 2 13 11 5 14 9 15 15 4 7 -11 11 -10 19 2 7 11 10 11 10 2 0 -7 5 -10
12 -6 7 4 8 3 4 -4 -4 -7 -3 -12 3 -12 5 0 12 8 14 18 4 16 5 16 6 0 0 -10 6
-19 11 -19 6 -1 16 -2 23 -3 6 -1 11 -8 9 -15 -1 -7 2 -10 8 -6 12 8 -6 36
-20 32 -7 -2 -10 3 -10 19 0 3 14 -5 31 -17 l31 -22 -6 24 c-3 13 -3 18 0 11
3 -6 10 -10 15 -6 12 7 11 -2 -2 -29 -10 -21 -10 -21 5 -3 9 11 16 27 17 35 0
12 2 12 8 -2 4 -10 11 -18 15 -17 5 1 13 -4 18 -12 8 -10 9 -10 5 2 -2 8 -10
14 -16 12 -6 -1 -11 3 -11 9 0 12 37 3 59 -15 11 -9 13 -6 7 14 -6 19 -5 22 3
10 10 -13 12 -13 21 0 6 9 10 10 10 3 0 -12 54 -12 66 -1 3 4 14 2 24 -5 14
-8 25 -8 45 1 14 7 24 8 20 3 -3 -6 12 -10 36 -9 29 0 37 3 28 10 -11 8 -11 9
1 5 8 -2 13 -12 12 -22 -3 -17 -2 -17 13 -5 14 12 17 10 22 -8 3 -12 9 -22 15
-22 5 0 4 9 -3 21 -8 16 -8 24 2 33 9 8 10 8 6 0 -4 -7 1 -22 11 -34 17 -21
18 -21 18 -2 0 11 -3 19 -6 17 -4 -2 -7 3 -7 11 0 10 4 11 11 4 14 -14 39 -13
30 2 -4 7 -3 8 4 4 6 -4 8 -14 5 -24 -6 -15 -5 -15 10 -4 14 12 20 11 43 -7
21 -17 29 -18 45 -8 10 6 19 16 19 21 0 5 -9 1 -20 -9 -12 -11 -20 -13 -20 -6
0 7 -4 10 -9 7 -5 -3 -11 0 -14 7 -3 8 9 12 44 12 l48 0 -16 -25 -16 -25 26
24 c15 13 23 29 20 35 -4 6 1 5 10 -2 9 -8 21 -11 26 -8 5 4 12 2 16 -4 3 -5
13 -10 21 -10 8 0 13 3 11 8 -3 4 12 7 33 8 33 0 36 -1 24 -14 -15 -14 -9 -36
7 -26 5 3 7 9 4 14 -6 9 24 24 44 21 8 -1 10 2 5 10 -4 8 -3 10 5 5 9 -6 9
-11 1 -21 -8 -9 -6 -14 5 -19 9 -3 14 -2 11 3 -3 5 2 12 12 17 20 8 19 8 55 0
19 -4 26 -3 22 3 -3 7 0 8 10 5 12 -5 13 -10 4 -20 -6 -8 -15 -12 -19 -9 -5 3
-11 1 -14 -4 -7 -10 20 -9 30 2 11 11 26 8 19 -3 -3 -5 -2 -10 4 -10 5 0 13 9
16 20 4 11 10 18 15 15 5 -3 11 1 13 7 4 10 6 9 6 -1 1 -11 6 -10 22 5 13 12
19 14 17 5 -2 -7 3 -16 11 -19 9 -3 11 0 6 8 -5 9 -4 11 4 6 6 -4 9 -12 6 -17
-3 -5 1 -6 9 -3 9 3 14 9 12 13 -6 9 61 7 70 -2 4 -4 16 0 26 10 11 9 18 11
18 5 0 -7 -6 -12 -12 -12 -7 0 -4 -6 7 -12 11 -6 24 -16 28 -22 6 -7 7 -4 4 6
-3 9 -3 19 1 21 4 2 1 2 -6 0 -7 -1 -11 1 -8 6 3 5 23 7 43 6 21 -2 42 0 49 6
7 6 16 4 24 -6 15 -18 35 -20 24 -3 -5 7 -3 8 5 4 7 -5 10 -14 8 -20 -4 -9 3
-11 19 -8 13 2 24 8 24 13 0 5 -7 6 -15 3 -8 -4 -15 -1 -15 4 0 19 17 22 30 7
15 -18 34 -20 23 -2 -4 6 6 4 21 -7 16 -10 25 -13 22 -7 -6 10 20 16 47 12 4
0 7 5 7 12 0 9 2 9 9 -1 4 -8 11 -13 15 -13 25 4 36 0 30 -11 -5 -7 -3 -8 7
-2 15 9 20 10 62 12 16 1 26 6 23 11 -7 10 13 9 30 -2 6 -3 14 -4 18 0 9 9 56
13 56 4 0 -8 -9 -10 -55 -13 -14 -1 -25 -6 -25 -10 0 -9 48 -3 58 6 3 3 10 -2
17 -11 9 -13 14 -13 20 -3 5 9 4 11 -3 6 -7 -4 -12 -2 -12 4 0 15 50 7 60 -10
7 -11 9 -10 8 7 -2 15 -8 20 -20 18 -10 -2 -16 0 -13 5 3 5 17 7 31 4 19 -3
24 -1 18 8 -6 10 -4 10 7 0 12 -11 12 -14 -1 -23 -11 -8 -9 -9 9 -4 13 4 21 3
18 -2 -3 -5 3 -9 13 -9 11 0 17 2 15 4 -2 3 0 13 6 24 11 20 29 16 29 -8 0 -8
-4 -12 -10 -9 -5 3 -10 2 -10 -3 0 -5 15 -9 33 -9 17 0 26 2 19 5 -6 2 -9 9
-6 14 4 7 2 8 -4 4 -7 -4 -12 -2 -12 3 0 19 28 12 35 -9 4 -11 11 -17 17 -14
6 4 5 10 -3 15 -8 5 -10 9 -5 9 5 0 2 8 -5 18 -12 15 -11 15 8 -1 14 -13 23
-15 28 -7 5 8 11 8 19 1 9 -7 17 -7 26 2 10 9 11 9 6 -1 -5 -7 -1 -12 9 -12
10 0 13 5 9 12 -4 7 -3 8 5 4 7 -5 9 -16 5 -28 -4 -14 -2 -18 5 -14 6 4 11 16
11 27 0 10 5 19 11 19 5 0 8 -4 5 -8 -2 -4 0 -14 6 -22 8 -12 9 -11 4 3 -4 12
-2 17 6 14 7 -2 12 -10 10 -16 -1 -7 2 -9 8 -6 6 4 9 12 7 19 -3 9 4 11 25 8
24 -4 29 -2 23 9 -7 12 -6 12 9 0 9 -8 14 -21 11 -30 -3 -8 -3 -12 1 -8 4 4
13 2 21 -4 9 -9 13 -8 13 0 0 6 -4 11 -10 11 -5 0 -10 7 -10 15 0 8 5 15 11
15 5 0 8 -4 5 -9 -5 -8 40 -26 57 -23 28 6 32 6 30 -5 -2 -7 1 -13 6 -13 6 0
9 9 8 19 0 11 -5 17 -9 15 -4 -3 -8 0 -8 6 0 7 7 9 16 6 9 -3 18 -6 20 -6 3 0
2 -5 -1 -10 -3 -5 1 -10 10 -10 11 0 15 5 12 14 -4 10 -1 13 9 9 17 -6 17 -8
3 -36 -7 -14 0 -10 19 11 20 22 31 29 34 20 4 -11 8 -10 22 1 14 12 16 12 11
-1 -4 -10 1 -17 15 -21 16 -4 19 -2 11 7 -8 9 -7 13 4 13 15 0 18 -7 18 -39 0
-10 3 -15 8 -13 4 3 6 14 4 25 -2 11 1 23 7 26 7 4 8 2 4 -4 -4 -7 -1 -12 9
-12 9 0 14 4 11 9 -7 11 13 9 32 -3 7 -4 19 -2 28 5 8 7 14 8 13 3 -4 -23 3
-25 28 -9 l28 18 -19 -21 c-19 -22 -10 -32 10 -12 8 8 19 8 38 0 37 -14 79
-13 96 3 12 10 12 9 1 -6 -13 -16 -12 -17 14 -7 25 10 27 9 15 -5 -11 -14 -11
-16 1 -13 8 2 20 12 27 23 12 19 13 19 6 -4 -4 -16 -3 -21 5 -17 6 4 11 2 11
-3 0 -6 5 -11 11 -11 5 0 8 3 6 8 -3 4 1 13 9 20 9 8 14 9 14 2 0 -6 5 -8 10
-5 6 3 10 1 10 -5 0 -7 -7 -10 -14 -7 -10 4 -13 1 -9 -9 3 -8 8 -12 11 -10 3
3 12 0 21 -6 13 -10 14 -10 4 1 -13 15 -7 41 9 41 6 0 8 -7 4 -15 -3 -8 -1
-15 4 -15 6 0 10 7 10 16 0 8 4 13 10 9 5 -3 7 -13 4 -23 -5 -13 -4 -14 4 -3
8 11 10 11 14 0 3 -9 6 -8 11 5 4 9 3 15 -2 12 -5 -3 -12 1 -15 9 -4 12 -2 13
13 6 10 -6 22 -7 26 -3 5 4 6 0 3 -9 -4 -9 -1 -16 5 -16 7 0 19 -3 27 -5 8 -3
12 -3 7 -1 -4 3 -5 9 -2 14 4 5 -1 6 -9 3 -11 -4 -16 0 -16 12 0 11 3 15 8 9
10 -15 38 -12 34 4 -1 7 2 10 8 6 8 -5 7 -11 -1 -21 -9 -11 -9 -14 0 -14 7 0
10 -4 7 -8 -6 -10 30 -9 40 1 12 11 26 8 18 -4 -4 -7 1 -7 15 1 17 9 26 8 39
-2 15 -12 16 -11 3 5 -9 12 -10 17 -2 17 7 0 10 4 7 9 -3 5 8 7 25 6 24 -2 29
1 24 13 -3 8 6 4 20 -10 27 -28 62 -31 57 -6 -1 8 4 15 13 15 8 0 11 -5 8 -10
-3 -5 0 -8 8 -5 8 3 14 10 14 16 0 5 3 13 6 16 10 10 7 -28 -4 -41 -6 -9 -6
-13 1 -13 6 0 13 6 15 13 4 9 7 9 15 -1 7 -10 11 -10 22 3 13 16 15 15 27 -1
7 -10 13 -12 13 -6 0 7 0 15 0 20 0 10 -23 10 -37 -1 -17 -12 -33 0 -26 19 5
13 7 13 14 2 7 -11 11 -10 19 2 9 13 10 13 10 0 0 -13 1 -13 10 0 6 10 10 11
10 3 0 -7 5 -13 11 -13 5 0 7 5 3 12 -4 6 -3 8 4 4 5 -3 12 -2 14 4 2 6 9 1
16 -10 7 -12 8 -20 2 -20 -5 0 -10 5 -10 11 0 5 -4 7 -10 4 -18 -11 -11 -22
13 -21 17 1 22 7 20 26 -1 15 0 18 3 8 3 -10 10 -18 16 -18 5 0 8 7 5 15 -4 8
-1 17 5 21 6 4 9 3 5 -2 -3 -5 0 -20 7 -33 11 -20 14 -21 19 -7 4 10 3 15 -1
12 -5 -3 -9 1 -9 8 0 8 8 11 19 8 10 -2 25 1 33 8 8 7 15 8 15 3 0 -6 -9 -14
-20 -19 -20 -9 -20 -9 2 -23 22 -13 22 -13 8 4 -14 17 -13 18 3 12 11 -4 17
-1 17 9 0 8 5 12 11 9 6 -4 8 -14 5 -24 -5 -13 -3 -12 8 3 15 19 41 13 29 -7
-5 -8 -2 -8 9 0 8 7 19 9 23 5 5 -4 5 -1 1 6 -4 6 -2 12 4 12 6 0 9 4 6 8 -2
4 5 9 16 9 16 2 18 -1 9 -10 -19 -19 -12 -28 8 -10 11 9 18 20 15 25 -3 4 3 5
12 1 13 -5 15 -3 9 8 -6 11 -5 12 5 2 16 -15 22 -43 9 -43 -5 0 -9 5 -9 10 0
6 -5 10 -12 10 -8 0 -7 -6 4 -16 16 -16 43 -11 33 7 -4 5 -1 9 5 9 6 0 9 4 5
9 -3 5 0 13 6 17 8 4 9 3 5 -4 -4 -7 -1 -12 8 -12 8 0 22 -3 32 -7 13 -5 15
-3 9 8 -6 11 -5 11 5 2 7 -6 19 -9 26 -6 20 7 17 -7 -3 -24 -16 -13 -16 -13 5
-3 25 12 46 5 36 -12 -5 -7 -2 -8 5 -4 9 6 9 12 -3 25 -15 16 -15 18 1 16 10
-1 27 -6 38 -12 11 -6 28 -9 38 -8 9 2 14 -1 11 -7 -3 -5 0 -9 7 -7 28 3 40
-1 33 -13 -5 -10 -4 -10 6 -1 11 10 16 9 27 -5 7 -9 12 -12 11 -7 -2 6 2 11 7
13 6 1 10 -2 10 -7 0 -5 4 -13 9 -18 5 -5 6 -3 2 5 -6 9 -1 12 18 10 14 -2 29
-8 33 -13 4 -4 3 -5 -3 -2 -6 3 -11 0 -11 -8 0 -8 4 -15 8 -15 11 0 20 31 12
43 -5 8 -2 8 9 0 8 -7 19 -9 24 -5 4 4 2 -1 -5 -11 -12 -16 -12 -20 2 -33 9
-8 12 -9 7 -2 -14 17 -12 28 6 28 9 0 12 -5 8 -12 -4 -7 -4 -10 1 -6 4 4 15 2
24 -5 12 -9 11 -4 -3 18 -17 26 -17 28 -2 16 14 -12 19 -12 25 -2 6 10 10 9
14 -4 4 -9 3 -13 -3 -10 -6 3 -10 1 -10 -4 0 -14 2 -14 33 2 14 7 40 12 59 11
18 -1 37 3 41 9 6 8 7 6 3 -5 -3 -10 -1 -18 4 -18 5 0 7 -8 3 -17 -3 -10 -3
-15 1 -12 4 4 9 17 11 29 5 27 15 39 15 19 0 -12 2 -11 11 1 9 13 10 13 6 0
-2 -8 -9 -14 -15 -13 -6 2 -9 -4 -5 -13 3 -9 9 -11 12 -6 3 5 14 8 24 6 10 -1
14 2 10 9 -4 7 0 8 11 4 13 -5 17 -3 13 6 -3 8 1 14 9 14 8 0 13 -6 10 -13 -3
-8 -1 -16 4 -19 12 -7 40 5 40 18 0 7 -4 7 -12 -1 -20 -20 -28 -13 -16 13 6
14 15 25 20 25 5 0 7 -4 4 -9 -3 -5 1 -14 9 -21 8 -7 15 -9 15 -6 0 4 9 2 20
-4 17 -9 19 -8 13 7 -6 16 -5 17 13 3 15 -11 16 -11 7 0 -13 14 -47 24 -38 11
2 -4 -2 -8 -9 -8 -8 0 -12 6 -9 14 7 17 49 9 76 -14 11 -10 17 -12 13 -5 -9
16 6 16 23 -1 10 -10 12 -9 9 2 -2 7 3 16 11 19 10 3 11 0 5 -9 -7 -12 -5 -12
9 0 9 7 17 10 17 6 0 -4 7 -2 15 5 8 6 20 8 26 4 8 -4 9 -3 5 4 -4 7 3 14 19
18 13 3 23 10 20 14 -3 5 -1 11 4 14 11 7 9 -13 -3 -33 -6 -9 -5 -12 2 -7 5 3
12 3 15 -1 2 -5 2 -2 1 5 -4 14 12 16 21 3 3 -6 17 -4 33 5 24 12 28 12 34 -4
6 -16 7 -16 7 1 1 10 5 16 10 12 5 -3 12 -1 16 5 4 6 10 8 13 6 4 -2 7 74 7
170 0 109 -4 174 -10 174 -7 0 -7 3 0 8 12 8 15 132 3 132 -4 0 -8 5 -8 11 0
5 4 8 9 5 5 -3 9 6 9 19 0 14 -5 28 -9 31 -5 3 -6 11 -2 17 10 16 11 397 1
397 -5 0 -8 5 -8 11 0 5 4 8 9 5 5 -3 9 6 9 19 0 14 -5 28 -9 31 -5 3 -6 11
-2 17 12 19 10 257 -2 257 -6 0 -7 3 0 8 12 8 15 132 3 132 -4 0 -8 5 -8 11 0
5 4 8 9 5 5 -3 9 6 9 19 0 14 -5 28 -9 31 -5 3 -6 11 -2 17 10 16 11 397 1
397 -5 0 -8 5 -8 11 0 5 4 8 9 5 5 -3 9 6 9 19 0 14 -5 28 -9 31 -5 3 -6 11
-2 17 12 19 10 257 -2 257 -6 0 -7 3 0 8 12 8 15 132 3 132 -4 0 -8 5 -8 11 0
5 4 8 9 5 5 -3 9 6 9 19 0 14 -5 28 -9 31 -5 3 -6 11 -2 17 10 16 11 397 1
397 -5 0 -8 5 -8 11 0 5 4 8 9 5 5 -3 9 6 9 19 0 14 -5 28 -9 31 -5 3 -6 10
-2 17 10 17 12 77 2 77 -5 0 -9 5 -9 11 0 5 4 8 9 5 5 -3 9 6 9 19 0 14 -5 28
-9 31 -5 3 -6 11 -2 17 10 16 11 397 1 397 -5 0 -8 5 -8 11 0 5 4 8 9 5 5 -3
9 6 9 19 0 14 -5 28 -9 31 -5 3 -6 11 -2 17 12 19 10 257 -2 257 -6 0 -7 3 0
8 12 8 15 132 3 132 -4 0 -8 5 -8 11 0 5 4 8 9 4 12 -7 11 36 -1 52 -5 6 -5
14 0 17 14 9 7 215 -8 229 -10 10 -11 9 -5 -3 8 -13 7 -13 -8 -1 -12 9 -17 10
-17 2 0 -7 -5 -9 -10 -6 -8 5 -8 11 -1 19 25 30 -114 54 -204 36z m246 -4354
c-6 -7 -25 -12 -43 -12 -18 1 -38 -5 -44 -12 -8 -11 -13 -11 -25 4 -10 13 -10
16 -1 10 8 -5 22 -1 34 11 12 10 18 12 14 6 -9 -16 10 -18 19 -3 5 8 11 7 21
-1 13 -11 18 -6 15 14 -1 5 3 6 9 2 8 -5 8 -11 1 -19z m-1324 -6 c-5 -29 -12
-33 -28 -13 -9 11 -10 14 -1 9 7 -4 15 -1 18 8 9 22 14 20 11 -4z m-49 -15
c-3 -3 -9 2 -12 12 -6 14 -5 15 5 6 7 -7 10 -15 7 -18z m1176 -1 c3 -8 2 -13
-3 -10 -5 3 -11 -1 -14 -9 -4 -8 -15 -12 -28 -10 -12 3 -27 1 -33 -2 -16 -10
-46 -11 -46 -1 0 4 8 8 18 8 14 0 15 2 2 10 -9 6 -10 10 -3 10 6 0 15 -5 18
-11 5 -6 12 -4 22 8 8 10 12 13 9 6 -4 -6 -2 -14 4 -18 5 -3 10 -1 10 4 0 6 7
11 15 11 8 0 15 5 15 10 0 15 7 12 14 -6z m36 10 c0 -8 -19 -13 -24 -6 -3 5 1
9 9 9 8 0 15 -2 15 -3z m-2645 -15 c12 -13 -23 -17 -40 -5 -15 11 -14 12 8 11
14 0 28 -3 32 -6z m-1408 -31 c-3 -7 -5 -2 -5 12 0 14 2 19 5 13 2 -7 2 -19 0
-25z m963 20 c0 -4 -4 -8 -9 -8 -6 0 -12 4 -15 8 -3 5 1 9 9 9 8 0 15 -4 15
-9z m1374 -24 c3 -8 2 -13 -3 -9 -5 3 -11 -1 -14 -7 -2 -7 -8 -10 -12 -6 -4 4
-1 14 6 22 17 19 16 19 23 0z m137 -1 c9 -9 7 -11 -5 -9 -9 1 -21 7 -27 13 -9
9 -7 11 5 9 9 -1 21 -7 27 -13z m-451 3 c0 -3 -4 -8 -10 -11 -5 -3 -10 -1 -10
4 0 6 5 11 10 11 6 0 10 -2 10 -4z m260 -16 c-9 -16 -40 -19 -40 -4 0 4 35 20
48 23 1 1 -2 -8 -8 -19z m1426 -8 c-18 -16 -18 -16 -6 6 6 13 14 21 18 18 3
-4 -2 -14 -12 -24z"/>
<path d="M5398 1653 c7 -3 16 -2 19 1 4 3 -2 6 -13 5 -11 0 -14 -3 -6 -6z"/>
<path d="M5434 1644 c-18 -14 -18 -15 4 -4 12 6 22 13 22 15 0 8 -5 6 -26 -11z"/>
<path d="M3456 1634 c-4 -9 -4 -19 -1 -22 2 -3 7 3 11 12 4 9 4 19 1 22 -2 3
-7 -3 -11 -12z"/>
<path d="M3643 1640 c-13 -5 -23 -15 -22 -22 0 -10 2 -10 6 0 2 6 11 12 18 12
8 0 17 5 20 10 7 12 7 12 -22 0z"/>
<path d="M1026 1625 c3 -8 10 -13 14 -10 5 3 11 -1 13 -7 4 -10 6 -10 6 0 1 8
6 10 14 6 6 -4 10 -5 7 -1 -3 3 -9 6 -15 7 -5 1 -18 6 -27 11 -14 7 -16 6 -12
-6z"/>
<path d="M1566 1631 c-4 -5 -15 -8 -26 -6 -12 2 -18 0 -14 -6 3 -6 9 -8 12 -5
3 3 14 -2 25 -11 11 -10 17 -13 14 -6 -4 6 -1 13 5 16 10 3 10 8 2 17 -8 8
-14 8 -18 1z"/>
<path d="M2715 1630 c-4 -6 -13 -9 -20 -6 -14 5 -14 -18 0 -31 4 -5 5 -2 0 6
-6 10 -4 13 7 9 22 -9 46 8 32 22 -9 9 -14 9 -19 0z"/>
<path d="M3095 1629 c-4 -6 -5 -12 -2 -15 2 -3 7 2 10 11 7 17 1 20 -8 4z"/>
<path d="M3487 1626 c-4 -10 -1 -13 8 -9 8 3 12 9 9 14 -7 12 -11 11 -17 -5z"/>
<path d="M3897 1633 c-4 -3 -7 -11 -7 -17 0 -6 5 -5 12 2 6 6 9 14 7 17 -3 3
-9 2 -12 -2z"/>
<path d="M4045 1629 c-4 -6 -5 -12 -2 -15 2 -3 7 2 10 11 7 17 1 20 -8 4z"/>
<path d="M5555 1630 c-3 -5 -1 -10 4 -10 6 0 11 5 11 10 0 6 -2 10 -4 10 -3 0
-8 -4 -11 -10z"/>
<path d="M833 1624 c4 -4 1 -14 -6 -23 -11 -14 -10 -15 8 -1 11 8 21 15 23 16
2 1 -5 5 -15 8 -9 4 -14 4 -10 0z"/>
<path d="M870 1626 c0 -2 7 -7 16 -10 8 -3 12 -2 9 4 -6 10 -25 14 -25 6z"/>
<path d="M935 1620 c3 -5 11 -10 16 -10 6 0 7 5 4 10 -3 6 -11 10 -16 10 -6 0
-7 -4 -4 -10z"/>
<path d="M1197 1612 c1 -8 3 -16 3 -19 0 -2 7 2 15 11 19 19 20 32 1 17 -8 -7
-16 -8 -18 -4 -3 4 -3 2 -1 -5z"/>
<path d="M1485 1619 c-4 -6 -4 -13 -1 -16 3 -4 6 -1 6 6 0 7 5 9 10 6 6 -4 7
-11 4 -17 -4 -7 -2 -8 5 -4 9 6 9 11 0 22 -14 17 -16 17 -24 3z"/>
<path d="M1630 1621 c0 -5 8 -15 17 -22 11 -10 14 -10 9 -1 -4 7 -2 12 6 12 9
0 9 3 -2 10 -19 12 -30 13 -30 1z"/>
<path d="M1683 1615 c-3 -9 -3 -18 -1 -21 3 -3 8 4 11 16 6 23 -1 27 -10 5z"/>
<path d="M2009 1605 c-10 -19 -9 -19 4 -2 16 19 34 7 21 -15 -4 -6 -3 -8 3 -5
6 4 13 15 15 25 7 25 -31 23 -43 -3z"/>
<path d="M2105 1614 c-11 -8 -26 -12 -34 -9 -9 3 -12 2 -7 -2 10 -10 56 -12
50 -2 -2 4 2 9 8 12 7 2 11 7 8 10 -3 3 -14 -1 -25 -9z"/>
<path d="M2189 1628 c-5 -18 -6 -38 -1 -34 7 8 12 36 6 36 -2 0 -4 -1 -5 -2z"/>
<path d="M2266 1619 c3 -5 0 -9 -6 -9 -6 0 -8 -5 -4 -11 4 -7 9 -7 13 -2 3 6
13 12 21 15 10 3 8 6 -8 10 -12 4 -20 2 -16 -3z"/>
<path d="M2430 1620 c0 -5 5 -10 11 -10 5 0 7 -5 3 -12 -4 -7 -3 -8 5 -4 9 6
9 11 0 22 -14 17 -19 18 -19 4z"/>
<path d="M2508 1616 c-10 -7 -15 -16 -12 -19 4 -3 13 1 21 9 20 19 13 26 -9
10z"/>
<path d="M2540 1607 c-12 -21 -12 -21 6 -7 10 8 20 15 22 16 2 1 -1 4 -5 7 -5
3 -15 -4 -23 -16z"/>
<path d="M2914 1618 c-4 -5 -3 -12 0 -15 3 -4 6 -1 6 6 0 7 4 10 9 6 5 -3 12
-2 15 3 3 5 -2 9 -10 9 -8 0 -17 -4 -20 -9z"/>
<path d="M2963 1623 c4 -3 -1 -12 -11 -20 -15 -13 -15 -13 6 -3 19 9 23 30 5
30 -4 0 -3 -3 0 -7z"/>
<path d="M3927 1619 c7 -7 15 -10 18 -7 3 3 -2 9 -12 12 -14 6 -15 5 -6 -5z"/>
<path d="M990 1611 c0 -7 -5 -9 -12 -5 -7 5 -8 3 -3 -5 5 -9 10 -10 18 -2 6 6
8 14 4 18 -4 3 -7 1 -7 -6z"/>
<path d="M1710 1611 c0 -6 4 -13 10 -16 6 -3 7 1 4 9 -7 18 -14 21 -14 7z"/>
<path d="M1830 1611 c0 -6 4 -13 10 -16 6 -3 7 1 4 9 -7 18 -14 21 -14 7z"/>
<path d="M1875 1611 c-3 -5 -2 -12 3 -15 5 -3 9 1 9 9 0 17 -3 19 -12 6z"/>
<path d="M2389 1603 c-11 -15 -11 -16 1 -6 11 10 16 9 27 -5 13 -15 13 -15 3
6 -13 27 -14 27 -31 5z"/>
<path d="M2656 1605 c4 -8 8 -15 10 -15 2 0 4 7 4 15 0 8 -4 15 -10 15 -5 0
-7 -7 -4 -15z"/>
<path d="M4061 1604 c0 -11 3 -14 6 -6 3 7 2 16 -1 19 -3 4 -6 -2 -5 -13z"/>
<path d="M4172 1606 c7 -8 15 -12 17 -11 5 6 -10 25 -20 25 -5 0 -4 -6 3 -14z"/>
<path d="M915 1600 c3 -5 8 -10 11 -10 2 0 4 5 4 10 0 6 -5 10 -11 10 -5 0 -7
-4 -4 -10z"/>
<path d="M1596 1602 c-2 -4 4 -8 14 -8 10 0 16 4 14 8 -3 4 -9 8 -14 8 -5 0
-11 -4 -14 -8z"/>
<path d="M2585 1600 c3 -5 8 -10 11 -10 2 0 4 5 4 10 0 6 -5 10 -11 10 -5 0
-7 -4 -4 -10z"/>
<path d="M2850 1599 c0 -5 5 -7 10 -4 6 3 10 8 10 11 0 2 -4 4 -10 4 -5 0 -10
-5 -10 -11z"/>
<path d="M3005 1600 c-3 -6 1 -7 9 -4 18 7 21 14 7 14 -6 0 -13 -4 -16 -10z"/>
<path d="M4095 1600 c-3 -6 1 -7 9 -4 18 7 21 14 7 14 -6 0 -13 -4 -16 -10z"/>
<path d="M4736 1601 c-3 -5 1 -11 9 -14 9 -4 12 -1 8 9 -6 16 -10 17 -17 5z"/>
<path d="M4776 1593 c10 -7 22 -13 26 -13 5 0 3 6 -4 13 -7 8 -19 14 -26 14
-11 0 -10 -4 4 -14z"/>
<path d="M4280 1580 c-12 -7 -10 -9 7 -7 12 0 19 5 17 9 -6 10 -6 10 -24 -2z"/>
<path d="M5917 1576 c-17 -13 -16 -14 2 -19 11 -2 24 0 29 5 12 12 35 1 27
-13 -4 -5 -4 -9 -1 -9 3 0 10 9 16 20 9 16 8 19 -6 13 -13 -5 -15 -3 -9 8 6 9
0 8 -19 -5 -25 -16 -28 -16 -23 -2 8 19 7 19 -16 2z"/>
</g>
</svg>
